<?xml version="1.0" standalone="no"?>
<!DOCTYPE svg PUBLIC "-//W3C//DTD SVG 20010904//EN"
 "http://www.w3.org/TR/2001/REC-SVG-20010904/DTD/svg10.dtd">
<svg version="1.0" xmlns="http://www.w3.org/2000/svg"
 width="336.000000pt" height="115.000000pt" viewBox="0 0 336.000000 115.000000"
 preserveAspectRatio="xMidYMid meet">

<g transform="translate(0.000000,115.000000) scale(0.100000,-0.100000)"
fill="#000000" stroke="none">
<path d="M0 575 l0 -575 1680 0 1680 0 0 575 0 575 -1680 0 -1680 0 0 -575z
m790 498 c106 -42 250 -156 250 -200 0 -6 8 -18 19 -25 10 -7 33 -55 51 -106
30 -87 32 -101 28 -195 -3 -80 -9 -111 -26 -142 -14 -26 -21 -34 -22 -21 0 10
-8 25 -17 32 -10 7 -18 18 -18 25 0 8 -17 14 -48 16 -64 4 -97 28 -90 66 3 16
-1 54 -10 85 -9 31 -19 73 -22 92 -4 27 -10 36 -27 37 -34 3 -40 17 -24 54 19
45 3 83 -36 87 -38 5 -68 -29 -68 -76 0 -32 9 -49 58 -106 31 -38 65 -81 76
-97 79 -125 -13 -268 -174 -269 -67 0 -117 23 -147 69 -26 39 -29 80 -9 119
13 25 12 28 -10 45 -28 21 -27 24 -49 -83 -9 -41 -18 -87 -21 -102 -6 -25 -1
-29 92 -75 85 -42 107 -48 160 -48 l61 0 -10 -37 c-25 -101 -84 -102 -215 -5
-104 77 -141 97 -182 97 -36 0 -36 2 -9 117 32 140 48 232 55 318 l7 80 -26
-24 c-34 -31 -51 -82 -44 -138 l5 -45 -34 7 c-24 4 -34 2 -34 -7 0 -7 -3 -23
-6 -34 -4 -16 0 -23 15 -27 24 -6 29 -37 6 -37 -8 0 -24 5 -34 12 -24 14 -55
-6 -48 -32 2 -8 -2 -21 -9 -28 -8 -7 -16 -25 -19 -40 -4 -15 -13 -49 -21 -76
-7 -26 -14 -59 -14 -72 0 -23 -1 -23 -17 -6 -22 22 -47 73 -65 132 -16 57 -16
251 1 305 22 72 45 120 63 133 10 7 18 19 18 27 0 18 118 135 136 135 8 0 19
9 26 20 7 11 21 20 30 20 10 0 35 9 57 20 86 46 278 47 391 3z m586 -296 l-33
-154 62 -33 c42 -23 70 -31 88 -28 15 3 27 1 27 -5 0 -6 9 -2 19 7 40 36 127
28 154 -15 17 -26 0 -69 -27 -69 -20 0 -23 4 -22 43 1 36 -2 42 -21 45 -27 4
-56 -37 -47 -64 4 -10 23 -39 44 -64 63 -76 73 -111 48 -164 -23 -51 -99 -77
-162 -56 -41 13 -56 35 -56 79 0 54 64 93 98 59 9 -9 6 -14 -10 -22 -34 -17
-44 -41 -30 -70 15 -32 53 -35 83 -5 28 28 20 71 -22 119 -16 19 -39 56 -51
81 -17 37 -25 45 -42 42 -15 -3 -42 12 -85 46 -35 28 -69 51 -75 51 -36 1 -36
15 -6 155 17 76 29 140 26 142 -10 10 -56 -61 -56 -88 0 -31 -9 -36 -28 -17
-42 42 46 133 134 137 22 1 22 1 -10 -152z m1109 103 c0 -18 -6 -26 -23 -28
-24 -4 -38 18 -28 44 3 9 15 14 28 12 17 -2 23 -10 23 -28z m231 13 c-15 -55
-47 -236 -41 -241 11 -11 40 14 49 44 20 69 41 106 65 119 29 15 141 19 141 5
0 -5 -7 -41 -15 -81 -11 -53 -12 -75 -5 -83 14 -14 50 27 50 56 0 60 70 128
120 115 16 -4 21 1 26 21 9 44 19 57 48 60 23 3 27 0 23 -15 -16 -54 -48 -236
-42 -241 11 -11 40 15 49 44 30 103 72 145 131 130 20 -5 25 -12 25 -39 0 -36
-28 -69 -67 -82 -27 -8 -31 -43 -7 -52 9 -3 25 -1 35 6 25 15 25 -3 -1 -29
-25 -25 -74 -26 -98 -2 -18 18 -19 18 -42 0 -28 -22 -66 -23 -78 -2 -9 16 -11
16 -33 0 -31 -21 -55 -20 -77 2 -18 18 -19 18 -42 0 -27 -22 -53 -23 -74 -2
-14 14 -18 14 -38 0 -30 -21 -54 -20 -76 2 -18 18 -19 18 -42 0 -27 -22 -66
-23 -78 -2 -7 13 -12 13 -40 -3 -29 -16 -34 -17 -59 -3 -24 13 -32 14 -53 3
-14 -7 -34 -12 -44 -11 -35 5 -41 31 -27 114 17 102 18 104 53 104 20 0 29 -4
25 -12 -11 -31 -30 -159 -23 -165 15 -15 41 16 47 53 11 80 65 135 118 121 20
-5 31 10 31 42 0 24 20 41 48 41 17 0 22 -4 18 -17z m-1165 -73 c11 -6 19 -21
19 -35 0 -42 42 -29 53 17 7 25 10 26 72 26 85 0 92 -9 77 -96 -13 -78 -2
-102 29 -63 10 13 19 32 19 43 0 34 38 95 67 106 40 15 133 15 133 -1 0 -6 -9
-50 -19 -97 -11 -47 -17 -87 -15 -89 10 -11 44 36 50 68 16 88 70 142 129 127
20 -5 25 -12 25 -39 0 -36 -28 -69 -68 -82 -30 -9 -27 -49 5 -53 41 -6 71 25
83 86 18 91 19 92 51 92 25 0 29 -3 24 -22 -30 -132 -31 -158 -11 -158 35 0
87 118 57 128 -17 6 -13 42 5 49 55 21 29 -147 -30 -197 -9 -7 -33 -13 -53
-14 -29 -1 -39 4 -48 21 l-11 22 -21 -20 c-11 -11 -38 -23 -61 -26 -32 -4 -44
-1 -58 15 l-17 20 -34 -26 c-20 -17 -33 -36 -33 -50 0 -30 -43 -72 -73 -72
-65 0 -61 79 6 103 9 4 17 11 17 16 0 7 -9 6 -25 -1 -27 -12 -75 2 -75 22 0 6
-13 1 -29 -11 -34 -25 -76 -20 -86 10 -3 10 -1 38 4 62 15 63 14 89 -4 89 -19
0 -31 -30 -46 -115 -12 -64 -13 -65 -44 -65 l-32 0 15 66 c8 36 12 67 10 70
-13 13 -37 -11 -43 -43 -12 -66 -87 -114 -132 -85 -48 30 -28 143 33 191 29
23 55 26 85 11z m1159 -235 c0 -19 -56 -85 -71 -85 -18 0 -18 2 3 45 17 34 28
45 45 45 13 0 23 -2 23 -5z m-223 -52 c-39 -200 -50 -264 -44 -270 16 -16 42
16 53 65 15 66 47 117 82 130 15 6 55 11 90 11 71 1 70 2 47 -94 -19 -79 -19
-115 0 -115 23 0 42 39 61 128 l17 82 35 0 c33 0 34 -1 28 -30 -32 -164 -32
-185 2 -164 19 11 57 83 66 127 5 19 2 27 -8 27 -20 0 -27 27 -11 40 8 7 22
10 30 6 19 -7 20 -81 3 -138 -27 -90 -120 -146 -166 -100 -17 17 -22 18 -34 6
-22 -23 -73 -28 -91 -10 -15 15 -19 15 -46 1 -39 -20 -54 -19 -82 4 -23 19
-24 19 -48 0 -28 -22 -60 -24 -86 -6 -15 12 -23 12 -48 -1 -36 -18 -77 -7 -91
24 -9 21 -9 21 -30 -2 -30 -34 -80 -42 -102 -16 -17 21 -18 21 -42 1 -31 -24
-57 -24 -81 0 -16 16 -21 17 -33 5 -22 -23 -73 -28 -91 -10 -14 15 -19 15 -51
-1 -93 -44 -135 60 -70 173 28 49 57 62 142 63 71 1 70 2 47 -94 -19 -79 -19
-115 0 -115 24 0 44 42 61 128 l17 82 35 0 c33 0 34 -1 28 -30 -32 -164 -32
-185 2 -164 11 7 24 43 36 102 l19 92 34 0 c38 0 38 0 18 -90 -20 -91 -19
-110 5 -110 20 0 50 45 50 76 0 31 48 101 78 113 16 7 42 11 57 9 25 -3 30 1
35 28 12 57 18 64 51 64 29 0 31 -2 26 -27z m793 22 c0 -3 -11 -57 -25 -121
-29 -135 -31 -164 -10 -164 21 0 19 -14 -5 -35 -27 -24 -73 -10 -78 23 l-3 23
-30 -25 c-58 -50 -139 -44 -160 11 -23 60 28 174 87 193 106 35 130 -76 27
-125 -35 -16 -43 -24 -40 -45 3 -33 37 -38 80 -11 36 22 31 10 78 229 10 50
12 52 45 52 19 0 34 -2 34 -5z m-2976 -62 c-5 -2 -8 -19 -6 -38 5 -40 -13 -53
-48 -35 -27 14 -23 53 5 59 11 2 24 10 28 17 5 8 13 11 20 7 7 -4 7 -8 1 -10z
m86 -323 c12 0 19 -36 9 -51 -6 -11 -14 -11 -42 -1 -18 7 -43 12 -55 12 -28 0
-28 14 1 28 35 17 51 21 65 16 8 -2 17 -4 22 -4z m566 -5 c16 -12 16 -14 3
-15 -9 0 -24 -9 -35 -21 -16 -18 -65 -49 -77 -49 -9 0 7 67 21 83 18 21 61 22
88 2z m-611 -83 c-6 -7 -45 19 -45 29 0 5 11 2 24 -8 13 -10 23 -19 21 -21z"/>
<path d="M470 1041 c-29 -22 -63 -57 -76 -78 -40 -65 -76 -135 -72 -139 2 -2
24 10 48 26 25 17 49 30 55 30 5 0 19 12 32 28 18 21 22 23 23 10 0 -22 55
-25 108 -6 31 12 36 11 48 -8 14 -21 15 -21 67 -3 28 10 64 18 80 19 l27 0
-48 63 c-27 34 -58 63 -70 65 -11 2 -26 10 -32 18 -9 9 -33 14 -75 14 -58 0
-67 -3 -115 -39z"/>
<path d="M584 806 c-3 -7 -4 -36 -2 -62 3 -50 0 -53 -41 -43 -10 3 -18 -9 -24
-38 -9 -39 -8 -44 14 -62 18 -15 39 -20 80 -21 41 0 60 -5 72 -18 22 -24 21
-29 -7 -36 -30 -7 -56 -32 -56 -53 0 -11 6 -14 21 -10 19 5 20 2 17 -36 -3
-39 -1 -42 25 -45 44 -5 84 44 82 100 -2 47 -22 93 -53 121 -19 17 -21 17 -30
1 -9 -16 -10 -15 -16 4 -4 12 -4 26 -1 32 3 6 -3 22 -14 36 -27 34 -44 90 -37
120 5 18 2 24 -9 24 -9 0 -18 -6 -21 -14z m19 -143 c-24 -9 -13 -23 12 -17 35
9 31 -1 -7 -21 -29 -14 -47 -9 -36 11 2 3 -8 12 -22 19 -24 14 -24 14 20 14
25 0 39 -3 33 -6z"/>
<path d="M540 776 c0 -14 5 -28 10 -31 6 -4 10 7 10 24 0 17 -4 31 -10 31 -5
0 -10 -11 -10 -24z"/>
<path d="M2598 793 c-27 -31 -38 -61 -38 -102 0 -28 4 -41 14 -41 22 0 35 23
48 84 12 64 2 89 -24 59z"/>
<path d="M2828 793 c-27 -31 -38 -61 -38 -102 0 -28 4 -41 14 -41 22 0 36 24
48 84 14 63 3 90 -24 59z"/>
<path d="M3058 793 c-27 -31 -38 -61 -38 -102 0 -28 4 -41 14 -41 22 0 35 23
48 84 12 64 2 89 -24 59z"/>
<path d="M3267 765 c-20 -42 -20 -45 -7 -45 17 0 50 39 50 60 0 32 -25 23 -43
-15z"/>
<path d="M1507 792 c-36 -40 -52 -142 -22 -142 24 0 47 46 49 100 3 57 -4 68
-27 42z"/>
<path d="M1918 793 c-27 -31 -38 -61 -38 -102 0 -28 4 -41 14 -41 22 0 36 24
48 84 14 63 3 90 -24 59z"/>
<path d="M2117 765 c-20 -42 -20 -45 -7 -45 17 0 50 39 50 60 0 32 -25 23 -43
-15z"/>
<path d="M1882 568 c-14 -14 -16 -38 -4 -38 12 0 32 23 32 37 0 16 -12 17 -28
1z"/>
<path d="M1833 432 c-36 -23 -58 -147 -28 -158 25 -10 42 13 54 73 18 90 12
109 -26 85z"/>
<path d="M2341 414 c-38 -49 -42 -149 -6 -149 23 0 40 42 51 125 5 41 4 50 -9
50 -9 0 -25 -12 -36 -26z"/>
<path d="M2613 432 c-36 -23 -58 -147 -28 -158 25 -10 42 13 54 73 18 90 12
109 -26 85z"/>
<path d="M3067 413 c-23 -45 -30 -73 -17 -73 20 0 60 49 60 75 0 34 -26 33
-43 -2z"/>
</g>
</svg>
